<svg xmlns="http://www.w3.org/2000/svg" width="490.082" height="534.796" viewBox="0 0 490.082 534.796">
  <defs>
    <style>
      .cls-1 {
        fill: #e8e8e8;
        opacity: 0.08;
      }

      .cls-2 {
        fill: #0e171c;
      }

      .cls-3 {
        fill: #1a2933;
      }

      .cls-4 {
        fill: #263c4a;
      }

      .cls-5 {
        fill: #943232;
      }

      .cls-6 {
        fill: #3d312f;
      }

      .cls-7 {
        fill: #fff;
      }

      .cls-8 {
        fill: #9bc1db;
      }

      .cls-9 {
        fill: #ba3f3f;
      }

      .cls-10 {
        fill: #7390a3;
      }

      .cls-11 {
        fill: #ffbe92;
      }

      .cls-12 {
        fill: #e0a780;
      }

      .cls-13 {
        fill: #cbe7fa;
      }

      .cls-14 {
        fill: #544340;
      }

      .cls-15 {
        fill: #a63838;
      }
    </style>
  </defs>
  <g id="Layer_2" data-name="Layer 2" transform="translate(-0.037 0)">
    <g id="OBJECTS" transform="translate(0.037 0)">
      <path id="Path_1" data-name="Path 1" class="cls-1" d="M106.874,77.267C66.92,110.276,51.606,106.128,31.85,124.976c-34.211,32.493-42.163,95.712-17.326,144.8,30.309,60.053,101.9,84.2,154.1,83.049C241.656,351.2,310.79,299.3,345.86,257.4c20.419-24.394,33.524-50.458,69.33-63.612s57.82-.319,69.355-14.136c18.7-22.382-11.289-89.773-65.5-113.088-36.493-15.707-75.515-7.755-96.3-3.534-58.507,11.9-72.177,39.61-102.093,31.9C185.431,85.759,182.855,42,155.049,42,140.054,41.853,134.458,54.468,106.874,77.267Z" transform="translate(-0.037 61.073)"/>
      <path id="Path_2" data-name="Path 2" class="cls-2" d="M95,188.5a28.739,28.739,0,0,0-2.184,6.234c-.147,1.89,1.792,3.289,9.964,6.037s11.608,8.59,21.3,11.633,23.732.761,23.535-4.589l-19.977-3.951Z" transform="translate(134.865 274.109)"/>
      <path id="Path_3" data-name="Path 3" class="cls-3" d="M117.681,186.053s15.608,16.1,27.56,23.977a3.019,3.019,0,0,1-1.178,5.5,93.6,93.6,0,0,1-14.455,1.178c-12.762,0-11.485-7.657-23.83-12.271s-15.731-1.35-8.516-19.805Z" transform="translate(135.89 268.481)"/>
      <path id="Path_4" data-name="Path 4" class="cls-2" d="M109.946,187.37a3.706,3.706,0,0,1-.368,2.749,6.184,6.184,0,0,1-1.865,2.037,6.013,6.013,0,0,1-5.2.785,13.18,13.18,0,0,1,1.988-1.571c.638-.466,1.276-.81,1.841-1.252a24.3,24.3,0,0,0,3.608-2.749Z" transform="translate(148.975 272.466)"/>
      <path id="Path_5" data-name="Path 5" class="cls-2" d="M104,185.88a8.59,8.59,0,0,1,3.068,4.54,8.074,8.074,0,0,1,0,5.522,16.3,16.3,0,0,1-2.233-4.908A14.874,14.874,0,0,1,104,185.88Z" transform="translate(151.14 270.299)"/>
      <path id="Path_6" data-name="Path 6" class="cls-3" d="M138.2,105.34s-5.1,65.919-7.362,87.049-5.448,108.842-5.448,108.842a39.267,39.267,0,0,1-27,0s-9.817-39.61-8.025-61.354,3.755-20.32,3.411-29.646-2.111-62.9-2.6-84.939Z" transform="translate(131.003 153.181)"/>
      <path id="Path_7" data-name="Path 7" class="cls-2" d="M79.294,195.84a17.449,17.449,0,0,0-2.037,6.994c-.859,5.4-1.718,13.817-3.166,20.05s-3.9,10.234,2.012,16.737,13.841,11.338,20.468,10.234a12,12,0,0,0,9.3-16.05Z" transform="translate(105.094 284.783)"/>
      <path id="Path_8" data-name="Path 8" class="cls-3" d="M97.025,195.84a19.952,19.952,0,0,1-18.774,0s-.27,5.326-2.258,18.185c-1.325,8.442-5.2,14.921-1.129,21.3S88.779,249.66,95.749,247.6s10.651-10.234,8.393-15.339a138.515,138.515,0,0,1-7.117-36.42Z" transform="translate(106.137 284.783)"/>
      <path id="Path_9" data-name="Path 9" class="cls-2" d="M76.07,206.78a9.645,9.645,0,0,1,3.289-2.822,13.571,13.571,0,0,1,4.1-1.423,12.443,12.443,0,0,1,4.368,0,9.352,9.352,0,0,1,3.951,1.718c-1.472.123-2.773,0-4.1.2a32.854,32.854,0,0,0-3.8.466C81.322,205.406,78.868,206.093,76.07,206.78Z" transform="translate(110.527 294.237)"/>
      <path id="Path_10" data-name="Path 10" class="cls-2" d="M76.07,201.38a15.855,15.855,0,0,1,4.589.687,22.089,22.089,0,0,1,4.295,1.644,21.351,21.351,0,0,1,3.9,2.454,10.97,10.97,0,0,1,2.92,3.681c-2.749-1.5-5.276-2.724-7.927-4.049a57.407,57.407,0,0,1-7.78-4.418Z" transform="translate(110.527 292.839)"/>
      <path id="Path_11" data-name="Path 11" class="cls-4" d="M79.927,105.34s-9.031,36.273-4.172,106c0,0-10.234,50.163,0,118.291,0,0,11.927,8.737,31.07,0,0,0,2.749-68.5,3.46-83.982s.736-25.548,2.92-34.358,15.633-66.262,15.633-66.262,35.463-19.633,39.046-39.61Z" transform="translate(103.455 153.181)"/>
      <path id="Path_12" data-name="Path 12" class="cls-5" d="M100.8,32.76c3.779,1.792,29.131,15.412,37.917,38.187S157,130.313,149,139.786s-32.812-7.362-32.812-7.362Z" transform="translate(146.488 47.637)"/>
      <path id="Path_13" data-name="Path 13" class="cls-6" d="M74,115.167a121.7,121.7,0,0,0,44.445,7.583,126.954,126.954,0,0,0,40.224-5.988,29.279,29.279,0,0,0,5.154-11.412H75.865S75.055,108.639,74,115.167Z" transform="translate(107.517 153.195)"/>
      <path id="Path_14" data-name="Path 14" class="cls-7" d="M109.237,118.92l-3.117.54a6.086,6.086,0,0,1-7.068-4.957h0a6.037,6.037,0,0,1,4.908-6.97l3.117-.54a6.037,6.037,0,0,1,6.97,4.908h0a6.013,6.013,0,0,1-4.81,7.019Z" transform="translate(143.818 155.455)"/>
      <path id="Path_15" data-name="Path 15" class="cls-8" d="M166.591,197.248c2.454-42.261-1.227-98.461-1.227-98.461s0-38.432-11.976-52.887-22.456-13.989-22.456-13.989L92.721,37.457A148.919,148.919,0,0,1,72.94,45.311S75.885,72.577,78,97.118c2.7,32.665,5.62,61.894,2.7,85.135-.957,7.215-1.914,6.945-2.7,14.308h0a17.4,17.4,0,0,0-1.939,18.185c60.544,10.381,87.957-2.184,89.332,0a24.542,24.542,0,0,0,1.227-17.621Z" transform="translate(105.975 46.4)"/>
      <path id="Path_16" data-name="Path 16" class="cls-9" d="M96.61,31.67s17.179,22.382,21.327,43.758,6.872,103.566,2.97,154.465c0,0,7.583,1.988,15.363-7.362,0,0-.27-62.311-1.5-86.411C133.226,105.319,138.11,35.67,96.61,31.67Z" transform="translate(140.395 46.052)"/>
      <path id="Path_17" data-name="Path 17" class="cls-5" d="M122.5,142.077s3.338-72.2-25.891-110.437c0,0,25.941,30.653,32.2,47.341a50.333,50.333,0,0,1-6.258,7.829l8.516,15.142Z" transform="translate(140.395 46.009)"/>
      <path id="Path_18" data-name="Path 18" class="cls-9" d="M96.585,32.83S80.609,36.9,74.007,43.972L81.37,129.4s.564,44.936-4.687,60.5a110.266,110.266,0,0,0-4.491,34.064s18.823,11.854,59.955,6.283c0,0,0-77.306-2.454-118.61S112.047,58.672,96.585,32.83Z" transform="translate(104.834 47.739)"/>
      <path id="Path_19" data-name="Path 19" class="cls-5" d="M82.11,32.83l3.166,55.243,15.044,7.363L93.3,111.56l23.437,35.365S129.058,74.575,82.11,32.83Z" transform="translate(119.31 47.739)"/>
      <path id="Path_20" data-name="Path 20" class="cls-10" d="M96.61,45.7a224.017,224.017,0,0,1,10.136,37.033c2.454,12.59,4.049,25.327,5.3,38.089.393,6.381.933,12.786,1.055,19.192s.393,12.811.27,19.216c0,3.19,0,6.405-.221,9.6l-.393,9.6c-.442,6.405-1.006,12.762-1.62,19.142.295-12.811.638-25.572.344-38.334s-.81-25.5-1.89-38.211-2.626-25.376-4.663-37.966c-1.031-6.283-2.184-12.565-3.583-18.774S98.451,51.811,96.61,45.7Z" transform="translate(140.395 66.454)"/>
      <path id="Path_21" data-name="Path 21" class="cls-11" d="M116.638,53.124c-.172-10.995.295-23.143.295-23.143L85.838,18.25s-2.111,33.4-2.454,36.42S95.655,67.9,105.472,71.211a26.824,26.824,0,0,0,5.252,1.325h0l5.08,12.983,2.184-14.136S121.154,65.1,116.638,53.124Z" transform="translate(121.153 26.538)"/>
      <path id="Path_22" data-name="Path 22" class="cls-12" d="M84.724,19.158v.81c0,2.012-.368,5.546-.614,9.694C90.294,40.337,107.2,57.541,118.027,64.02a35.486,35.486,0,0,0-2.454-10.97c-.172-10.995.294-23.143.294-23.143L84.773,18.25v.172C84.748,18.545,84.748,18.79,84.724,19.158Z" transform="translate(122.218 26.538)"/>
      <path id="Path_23" data-name="Path 23" class="cls-13" d="M98.794,53.551l8.1,4.025s-2.16-19.633-9.2-27l-1.08,2.65S100.954,49.035,98.794,53.551Z" transform="translate(140.395 44.467)"/>
      <path id="Path_24" data-name="Path 24" class="cls-13" d="M87.291,31.67s4.368,16.247,27,21.351l-7.362,9.3S89.99,54,80.91,37.781a24.223,24.223,0,0,1,6.381-6.111Z" transform="translate(117.565 46.052)"/>
      <path id="Path_25" data-name="Path 25" class="cls-11" d="M128.8,7.956a13.817,13.817,0,0,0-4.589-2.97C103.642-2.916,84.6,3.22,81.579,30.044,78.462,57.776,112.55,77.8,124.011,79.127s17.572-32.395,15.78-48.053A37.254,37.254,0,0,0,128.8,7.956Z" transform="translate(118.246 2.596)"/>
      <path id="Path_26" data-name="Path 26" class="cls-14" d="M87.486,51.341s-3.73-17.547,3.706-18.284,12.443,14.357,12.443,14.357a37.009,37.009,0,0,0,0-18.774s13.449,7.731,42.359,5.89a100.1,100.1,0,0,0-7.583-20.271C133.624,5.423,124.1-2.308,103.634.637S84.983,17.6,84.983,17.6s-1.939,1.423-4.516,8.074S82.332,43.193,87.486,51.341Z" transform="translate(115.824 0)"/>
      <path id="Path_27" data-name="Path 27" class="cls-11" d="M105.73,73.75s13.817-12.271,20.124-13.056,8.884-1.08,10.136.736S122.566,70.9,122.566,70.9s15.9-7.682,18.725-5.448-12.762,10.357-12.762,10.357,12.762-5.276,15.289-3.092-11.633,9.1-11.633,9.1Z" transform="translate(153.657 87.365)"/>
      <path id="Path_28" data-name="Path 28" class="cls-11" d="M81.277,89.563s-1.423,9.1,1.473,9.277,8.025-6.553,8.025-6.553,3.289,4,5.375,3.092,4.908-8.909,4.908-8.909.712,7.362,2.16,7.093,6.405-10.013,6.405-10.013Z" transform="translate(117.59 121.494)"/>
      <path id="Path_29" data-name="Path 29" class="cls-11" d="M109.388,66c-.466.368-21.3,3.828-27.388,22.75H95.694Z" transform="translate(119.15 95.974)"/>
      <path id="Path_30" data-name="Path 30" class="cls-15" d="M176.373,105.984a.736.736,0,0,1,.687.491c1.031,2.454,5.669,15.069,2.454,27.388a.81.81,0,0,1-.81.638c-5.6,0-83.245,44.838-99.615,20.173A204.432,204.432,0,0,1,64.365,76.657C64.807,52.115,69.838,42.789,85.3,37.39c0,0,15.216,16.664,13.645,55.44A66.852,66.852,0,0,0,110.209,125.4Z" transform="translate(93.494 54.37)"/>
      <path id="Path_31" data-name="Path 31" class="cls-5" d="M171.365,93.721c-2.454,4.148-7.068,11.51-32.591.663C119.7,86.26,85.42,88.346,85.42,88.346s.834-16.664,4-21.253c7.829-2.454,28.591-3.019,35.659-2.454,17.793,1.3,32.42,2.97,38.8,7.878C173.77,80,174.138,88.935,171.365,93.721Z" transform="translate(124.123 93.703)"/>
    </g>
  </g>
</svg>
