<svg xmlns="http://www.w3.org/2000/svg" xmlns:xlink="http://www.w3.org/1999/xlink" width="392.552" height="380.139" viewBox="0 0 392.552 380.139">
  <defs>
    <style>
      .cls-1 {
        opacity: 0.5;
      }

      .cls-2 {
        fill: url(#linear-gradient);
      }

      .cls-3 {
        fill: #fff;
      }

      .cls-4 {
        fill: url(#linear-gradient-2);
      }

      .cls-5 {
        fill: url(#linear-gradient-3);
      }

      .cls-6 {
        fill: url(#linear-gradient-4);
      }

      .cls-7 {
        fill: url(#linear-gradient-5);
      }

      .cls-8 {
        fill: #69f0ae;
      }

      .cls-9 {
        fill: #e0e0e0;
      }

      .cls-10 {
        fill: url(#linear-gradient-6);
      }

      .cls-11 {
        fill: url(#linear-gradient-7);
      }

      .cls-12 {
        fill: #be7c5e;
      }

      .cls-13 {
        fill: #fda57d;
      }

      .cls-14 {
        fill: #333;
      }

      .cls-15 {
        fill: red;
      }
    </style>
    <linearGradient id="linear-gradient" x1="0.502" y1="1.014" x2="0.502" y2="0.014" gradientUnits="objectBoundingBox">
      <stop offset="0" stop-color="gray" stop-opacity="0.251"/>
      <stop offset="0.54" stop-color="gray" stop-opacity="0.122"/>
      <stop offset="1" stop-color="gray" stop-opacity="0.102"/>
    </linearGradient>
    <linearGradient id="linear-gradient-2" x1="1.068" y1="0.668" x2="1.068" y2="-0.332" xlink:href="#linear-gradient"/>
    <linearGradient id="linear-gradient-3" x1="2.842" y1="0.652" x2="2.842" y2="-0.351" xlink:href="#linear-gradient"/>
    <linearGradient id="linear-gradient-4" x1="1.073" y1="0.27" x2="1.073" y2="-0.729" xlink:href="#linear-gradient"/>
    <linearGradient id="linear-gradient-5" x1="0.251" y1="0.451" x2="0.251" y2="-0.549" xlink:href="#linear-gradient"/>
    <linearGradient id="linear-gradient-6" x1="5.173" y1="0.029" x2="5.173" y2="-0.871" xlink:href="#linear-gradient"/>
    <linearGradient id="linear-gradient-7" x1="0.5" y1="1" x2="0.5" y2="0" xlink:href="#linear-gradient"/>
  </defs>
  <g id="undraw_agreement_aajr" transform="translate(0 -0.013)">
    <g id="Group_9" data-name="Group 9" class="cls-1" transform="translate(33.325 0.013)">
      <rect id="Rectangle_17" data-name="Rectangle 17" class="cls-2" width="227.342" height="314.117" transform="translate(0 94.349) rotate(-24.52)"/>
    </g>
    <rect id="Rectangle_18" data-name="Rectangle 18" class="cls-3" width="221.558" height="307.175" transform="translate(36.914 95.267) rotate(-24.52)"/>
    <rect id="Rectangle_19" data-name="Rectangle 19" class="cls-4" width="109.912" height="26.624" transform="translate(84.602 64.596) rotate(-24.52)"/>
    <path id="Path_37" data-name="Path 37" class="cls-5" d="M425.045,60.034a15.736,15.736,0,1,0,20.507,7.936A15.551,15.551,0,0,0,425.045,60.034Zm10.3,22.57a9.08,9.08,0,1,1,4.3-11.937,8.974,8.974,0,0,1-4.3,11.941Z" transform="translate(-301.244 -41.919)"/>
    <rect id="Rectangle_20" data-name="Rectangle 20" class="cls-3" width="107.596" height="25.453" transform="translate(85.661 64.133) rotate(-24.52)"/>
    <path id="Path_38" data-name="Path 38" class="cls-3" d="M426.245,62.415a15.042,15.042,0,1,0,19.926,7.443A15.042,15.042,0,0,0,426.245,62.415ZM436.089,84a8.677,8.677,0,1,1,4.294-11.5A8.677,8.677,0,0,1,436.089,84Z" transform="translate(-301.966 -43.245)"/>
    <rect id="Rectangle_21" data-name="Rectangle 21" class="cls-6" width="47.437" height="47.437" transform="translate(67.036 136.21) rotate(-24.52)"/>
    <rect id="Rectangle_22" data-name="Rectangle 22" class="cls-7" width="47.437" height="47.437" transform="translate(106.196 221.671) rotate(-24.52)"/>
    <rect id="Rectangle_23" data-name="Rectangle 23" class="cls-8" width="43.964" height="43.964" transform="translate(69.334 137.068) rotate(-24.52)"/>
    <rect id="Rectangle_24" data-name="Rectangle 24" class="cls-3" width="43.964" height="43.964" transform="translate(107.987 221.802) rotate(-24.52)"/>
    <rect id="Rectangle_25" data-name="Rectangle 25" class="cls-9" width="60.261" height="4.205" transform="translate(141.281 119.168) rotate(-24.52)"/>
    <rect id="Rectangle_26" data-name="Rectangle 26" class="cls-9" width="99.501" height="4.205" transform="translate(143.902 124.906) rotate(-24.52)"/>
    <rect id="Rectangle_27" data-name="Rectangle 27" class="cls-9" width="92.492" height="4.205" transform="translate(146.516 130.644) rotate(-24.52)"/>
    <rect id="Rectangle_28" data-name="Rectangle 28" class="cls-9" width="60.261" height="4.205" transform="translate(179.936 203.905) rotate(-24.52)"/>
    <rect id="Rectangle_29" data-name="Rectangle 29" class="cls-9" width="99.501" height="4.205" transform="translate(182.555 209.64) rotate(-24.52)"/>
    <rect id="Rectangle_30" data-name="Rectangle 30" class="cls-9" width="92.492" height="4.205" transform="translate(185.17 215.381) rotate(-24.52)"/>
    <path id="Path_39" data-name="Path 39" class="cls-10" d="M195.941,316.789l10.3,3.345,3.389-19.824,5.013,1.371L209,326.189,193.47,319.38Z" transform="translate(-107.649 -167.089)"/>
    <path id="Path_40" data-name="Path 40" class="cls-3" d="M199.3,318.892l8.956,2.905L211.2,304.56l4.356,1.193-4.9,21.31-13.507-5.917Z" transform="translate(-109.697 -169.454)"/>
    <path id="Path_41" data-name="Path 41" class="cls-3" d="M286.981,511.1l8.956,2.906,2.945-17.238,4.356,1.193-4.9,21.31-13.507-5.917Z" transform="translate(-158.483 -276.402)"/>
    <rect id="Rectangle_31" data-name="Rectangle 31" class="cls-9" width="140.572" height="46.856" transform="translate(172.55 295.04) rotate(-24.52)"/>
    <path id="Path_42" data-name="Path 42" class="cls-3" d="M700.773,630.206c-4.915-1.4-9.945-1.136-11.511,4.485-.528,1.894-.59,4.835-2.622,5.811-2.99,1.437-6.6-1.437-9.191-2.608a9.523,9.523,0,0,0-12.6,3.89,21.994,21.994,0,0,0-2.511,7.647,16.376,16.376,0,0,1-.719,3.651c-.927,2.072-3.828,1.885-5.731,1.805a12.4,12.4,0,0,1-1.269-.093,11.236,11.236,0,0,0,2.129-7.155c-.124-4.2-2.852-8.8-7.621-8.282a7.9,7.9,0,0,0-6.8,8.743,10.717,10.717,0,0,0,5.682,7.985c-1.455.643-3.008,1.144-4.383,1.81a18.383,18.383,0,0,0-1.868,1.042c-4.156-2-9.617-2.382-13.356-.337-1.81.989-.488,3.93,1.331,2.932,2.848-1.557,5.988-1.167,8.965-.177l.248.089a8.018,8.018,0,0,0-.776,1.2c-1.681,3.265,0,8.428,4.09,8.783,5.767.492,6.037-7.128,2.906-10.162-.133-.129-.266-.253-.408-.373,1.3-.625,2.7-1.1,3.935-1.624a16.361,16.361,0,0,0,3.061-1.7l.222.058c4.4,1,11.28,1.309,12.864-4.028,1.357-4.631,1.486-14.465,8.805-13.556,2.985.368,5.434,2.661,8.273,3.491,2.542.759,5.483.79,7.568-1.082,1.721-1.544,2.107-3.824,2.635-5.953a5.983,5.983,0,0,1,1.433-3.2c1.619-1.415,4.294-.581,6.1-.067C701.629,633.79,702.774,630.773,700.773,630.206Zm-57.223,37.523c-.971.963-2,.2-2.52-.807a3.166,3.166,0,0,1,.444-3.509,6.1,6.1,0,0,1,.421-.506c1.921,1.242,3.491,3.021,1.672,4.822Zm3.407-23.954a3.581,3.581,0,0,1,5.966,1.1,8.812,8.812,0,0,1-1,8.384,6.772,6.772,0,0,1-.732.825,9.345,9.345,0,0,1-3.163-1.805c-2.36-2.129-3.7-6.064-1.051-8.517Z" transform="translate(-418.87 -359.531)"/>
    <path id="Path_43" data-name="Path 43" class="cls-11" d="M465.625,163.7l-35.806,13.96a102.86,102.86,0,0,1-34.963-8.96,55.339,55.339,0,0,0-48.794.368c-35.043.838-54.33-3.651-64.622-7.9l2.715-5.571-36.294-14.15L157.12,100.78V267.462l31.756,14.15,17.034-40.863,37.408,17.3L250.5,239.8l24.561,18.227,1.672,1.406-2.3,2.391a12,12,0,0,0,0,16.506h0a10.93,10.93,0,0,0,15.88,0l-1.26,1.331a12,12,0,0,0,0,16.506h0a10.93,10.93,0,0,0,15.88,0l7.275-7.563h0l-4.995,5.19a12,12,0,0,0,0,16.506h0a10.93,10.93,0,0,0,15.88,0l7.182-7.466h0l-3.021,3.141a8.384,8.384,0,0,0,0,11.533,7.634,7.634,0,0,0,11.09,0l4.791-4.977c8.229,6.011,14.887,10.4,18.147,11.533,13.587,4.711,13.587-4.724,13.587-4.724,18.147,9.431,27.223-9.431,27.223-9.431,22.685,9.431,22.685-14.15,22.685-14.15,5.669,3.93,9.759,2.129,12.616-1.331a15.37,15.37,0,0,0,1.694-16.63l21.682-20.037,9.377,19.172,37.408-17.3L524.587,297.4l25.085-11.2V121.256Z" transform="translate(-157.12 -65.348)"/>
    <path id="Path_44" data-name="Path 44" class="cls-12" d="M593.848,368.948l-39.488,35.1L523.65,347.008l70.2-17.548Z" transform="translate(-291.366 -183.309)"/>
    <path id="Path_45" data-name="Path 45" class="cls-13" d="M380.7,231.69s12.673,17.548,87.746,13.161l43.875,65.811,29.4,33.078a13.987,13.987,0,0,1,.346,18.351c-2.755,3.2-6.716,4.879-12.2,1.22,0,0,0,21.935-21.935,13.161,0,0-8.774,17.548-26.322,8.774,0,0,0,8.774-13.161,4.387s-83.363-61.419-83.363-61.419L354.38,306.279Z" transform="translate(-266.878 -138.188)"/>
    <path id="Path_46" data-name="Path 46" class="cls-12" d="M626.717,264.069a102.1,102.1,0,0,1-37.7-8.512c-17.047-7.732-36.9-6.747-52.627,3.4-12.82,8.273-23.927,21.971-23.719,44.594,0,0,17.06,17.548,35.1-17.548h13.161s12.673,43.875,48.262,39.479,43.875-8.774,43.875-8.774Z" transform="translate(-354.949 -148.627)"/>
    <rect id="Rectangle_32" data-name="Rectangle 32" class="cls-12" width="21.718" height="34.125" rx="10.859" transform="translate(148.195 193.683) rotate(45)"/>
    <rect id="Rectangle_33" data-name="Rectangle 33" class="cls-12" width="21.718" height="34.125" rx="10.859" transform="translate(134.054 177.109) rotate(45)"/>
    <rect id="Rectangle_34" data-name="Rectangle 34" class="cls-12" width="21.718" height="37.226" rx="10.859" transform="translate(167.935 204.648) rotate(45)"/>
    <rect id="Rectangle_35" data-name="Rectangle 35" class="cls-12" width="15.166" height="24.819" rx="7.583" transform="translate(180.856 222.444) rotate(45)"/>
    <path id="Path_47" data-name="Path 47" class="cls-3" d="M681.742,322.693l-39.484,17.548-39.488-96.52,35.1-13.161Z" transform="translate(-335.389 -128.28)"/>
    <path id="Path_48" data-name="Path 48" class="cls-3" d="M108.25,273.237l39.484,17.548,39.488-96.52-35.1-13.166Z" transform="translate(-60.232 -100.759)"/>
    <path id="Path_49" data-name="Path 49" class="cls-14" d="M9.34,92.09l87.746,39.484L40.054,263.194,9.34,250.033Z" transform="translate(-5.197 -51.233)"/>
    <path id="Path_50" data-name="Path 50" class="cls-15" d="M769.646,141.54,681.9,181.028l57.036,131.616,30.709-13.161Z" transform="translate(-379.418 -78.748)"/>
  </g>
</svg>
